<svg version="1" xmlns="http://www.w3.org/2000/svg" width="346.667" height="346.667" viewBox="0 0 260.000000 260.000000"><path d="M49.5 31c-23.9 1.7-31.4 3.9-33.6 9.7-1.7 4.4 1.7 36.6 5.2 49.7l1.1 4 2.8-7C32.4 69 49.9 47.5 67.2 35.5c3.2-2.2 5.8-4.3 5.8-4.8 0-.8-9.1-.7-23.5.3zM84.7 35.4c-12.2 5-28.5 18.9-37.7 32.2-6.3 9.1-12.2 21.4-14.9 31.3l-2.1 7.4 2.7 6.6c7.1 18 16.7 32.4 30.1 45.3l9.9 9.5.5 6.4c.9 12.5 8 25.1 22.1 39.1 7.1 7.1 9.3 8.8 11.8 8.8 2.1 0 3.2-.6 3.8-2.3.5-1.2 3.5-12.7 6.5-25.5 7.5-30.8 12.7-44.6 21.2-56 2.9-3.7 3.9-4 5.4-1.1 1 1.8.6 3-3 8-7.4 10.6-15 29.3-15 36.9 0 6 4.2 10 10.3 10 6 0 9.2-2.6 11.1-9.4 3.4-11.8 12.2-26.4 23-38.3 4.7-5.2 19.9-17.3 21.7-17.3 2 0 .6 1.7-3.8 4.5-2.6 1.6-8.9 7-14 12-12.9 12.6-13.3 16.2-3.3 24.1l6.1 4.8-4.7 1.7c-16.3 6.2-15.6 21 1.9 41.9 9.9 11.9 20.2 16.9 28.1 13.6 7.1-3 9.5-11.9 6.1-23-1.9-6.4-2.1-5.7 2.1-10.7 1.9-2.3 4.2-5.1 4.9-6.3 1.2-1.6 3.4-2.2 11.5-3.2 10.9-1.3 14-2.7 17-7.7 3.8-6.1 2.2-10.6-6.6-18.6-6.6-6.1-22.9-14.4-31.6-16.1-12.5-2.5-20.5 3.3-21.8 15.8l-.5 5.2-4.5-3.9-4.5-4 7.3-7c4-3.8 9.8-8.6 12.7-10.6 7-4.6 8.5-6.9 8.5-12.6 0-4-.4-5.1-3.1-7.3-6.8-5.8-15.4-2.3-31.4 12.6-12.7 11.8-23.7 27.9-28.5 41.8-2.5 6.9-4 9.5-4 6.7 0-4.4 9.8-25.9 14.3-31.3 6.4-7.7 6.4-13.7.1-20.4l-2.3-2.5 4.8-4.2c8.2-7.1 18-12.8 37.1-21.6 10.2-4.6 20.2-9.2 22.3-10 3.1-1.3 3.7-2.1 3.7-4.6 0-3.6-4.5-7.6-16.8-15-11.9-7.2-22.5-10.4-34.1-10.4h-9.5l-6-4.4C134.8 45.4 114.5 37 95.8 34.2c-4.9-.8-6.6-.6-11.1 1.2zm10.1 7.7c1.1 0 1.2.2.4.6-.6.2-6 6.4-11.9 13.6-5.9 7.3-17.6 21.6-26 31.9C48.9 99.5 42 108.7 42 109.7c-.1 1.3-.5 1.1-1.6-1-1.3-2.5-1.3-3.4.5-9.5 4.8-15.9 13.3-29.5 25.9-41.3 7.9-7.5 22.4-16.3 25-15.4.8.3 2.1.5 3 .6zm73.5 41.3c5.9 6 10.7 11.3 10.7 11.7 0 .4-3.4 2.3-7.5 4.3-10.9 5.1-21.4 12.7-29.7 21.4-8.3 8.8-13.1 15.6-18.7 26.8-3.8 7.8-10.1 25.8-10.1 29.2-.1 4.6-1.6 4.7-9.2.2-9.1-5.4-20.2-12.9-24.7-16.7l-3.3-2.8 10.6-13.2c10.3-12.7 10.9-13.2 15.7-14.2 15.6-3.4 25.9-15.9 25.9-31.6 0-3.5.3-6.5.8-6.7.9-.4 17.4-20.5 19.2-23.5l1.4-2.2 4 3.2c2.3 1.7 8.9 8 14.9 14.1zm-62.7-4.8c3.5 1.7 5.8 3.9 3 2.8-1.4-.5-1.6 1.5-1.6 17.4 0 13.5.3 18.2 1.3 18.5 2.5 1-6.4 3.7-12.1 3.7-13.8 0-24-12.2-21.7-26 1-5.8 6.2-13 11.4-15.7 5.4-2.8 14.6-3.1 19.7-.7zm7.5 5.1c1.3 1.6 1.2 1.7-.3.4-1-.7-1.8-1.5-1.8-1.7 0-.8.8-.3 2.1 1.3zm.9 29.7c0 .2-.8 1-1.7 1.7-1.6 1.3-1.7 1.2-.4-.4 1.3-1.6 2.1-2.1 2.1-1.3zm102.8 40.8c.7.7 1.2 2.1 1.2 3.3 0 2.9-1.9 4.5-5.2 4.5-3.6 0-5.6-3.6-3.9-6.9 1.3-2.3 5.9-2.9 7.9-.9zM204 157c2.5 2.5 2.5 3.2.1 6.1-1.6 2-2.3 2.2-4.7 1.4-5.1-1.8-4-9.5 1.3-9.5.7 0 2.2.9 3.3 2zm16.4 11.6c2.2 2.1 2 4.7-.5 7-1.9 1.7-2.3 1.7-4.7.3-3.2-1.7-3.9-5-1.7-7.3 2.1-2 4.9-2.1 6.9 0zm-13 2.3c2.2 2.5 1.3 5.8-2 7.3-1.9.9-2.8.8-4.4-.7-2.2-2-2.6-5.5-.8-7.3 1.8-1.8 5.3-1.4 7.2.7zm-13.6 14.3c1.7 1.7 1.5 3.9-.8 6.8l-2 2.5 3.2 2.6c2.9 2.5 3.1 2.9 2 5.3-1.4 3.2-2.5 3.2-6.4.5l-2.9-2.1-2.9 2.7c-5.1 4.9-10.1 1.2-6-4.5l2.3-3.2-3.2-2.8c-3.3-3-3.3-5.3-.1-7 1.4-.8 2.6-.4 4.9 1.6l3.1 2.6 2.6-3.1c2.8-3.3 4.3-3.8 6.2-1.9z"/></svg>